<svg version="1.1" width="15px" height="15px" viewBox="0 0 1000 1000">
<g transform="translate(0.000000,511.000000) scale(0.100000,-0.100000)">
    <path fill="currentColor" d="M3194.2,3698c-1607.5-548-2942.9-1013.5-2967.8-1030.8c-26.8-19.2-65.1-59.4-86.2-88.1l-40.2-51.7v-3395v-3395l46-65.1c24.9-34.5,80.5-80.5,124.5-99.6c76.6-34.5,214.6-36.4,3910.4-36.4c4115.4,0,3954.5-3.8,4146.1,93.9c187.8,95.8,344.9,270.1,434.9,480.9c32.6,78.5,36.4,153.3,46,804.7l9.6,718.5l454.1,9.6l454.1,9.6l61.3,57.5c116.9,111.1,113,63.2,113,1431.2V393l-44.1,76.6c-26.8,49.8-70.9,92-128.4,120.7c-80.5,40.2-107.3,42.2-502,42.2h-417.7v676.3c0,716.6-5.7,775.9-97.7,956.1c-80.5,157.1-275.9,329.5-452.2,402.3c-105.4,40.2-141.8,44.1-685.9,53.6l-574.8,9.6l-270.1,881.3c-149.5,484.7-287.4,906.2-306.5,936.9c-19.2,30.7-59.4,72.8-86.2,93.9C6211.8,4732.6,6338.3,4770.9,3194.2,3698z M6047.1,3742.1C6231,3152,6355.5,2742,6355.5,2732.4c0-5.8-919.6-11.5-2044.3-11.5c-1122.7,0-2038.5,3.8-2032.8,9.6c13.4,13.4,3638.3,1253,3669,1253C5960.8,3985.4,6003,3880,6047.1,3742.1z M8129.6,2027.3l65.2-72.8v-659.1v-661l-831.5-5.8c-806.6-5.7-833.4-7.7-885.1-46c-28.8-21.1-70.9-63.2-92-92c-40.2-51.7-40.2-74.7-46-1335.4c-5.8-1421.6-9.6-1368,118.8-1459.9c59.4-42.2,65.1-42.2,898.6-47.9l837.3-5.8v-655.2c0-733.8-1.9-739.6-139.9-804.7c-61.3-30.7-346.8-32.6-3709.2-32.6H703.5v2979.3v2979.3L4384,2104l3680.5-5.7L8129.6,2027.3z M9286.9-871.5v-890.9H8118.2H6949.5v890.9V19.4h1168.7h1168.7V-871.5z"/><path d="M7543.4-538.1c-61.3-24.9-149.5-107.3-183.9-174.3c-38.3-74.7-34.5-241.4,9.6-321.9c19.2-36.4,70.9-92,115-124.5c149.4-105.4,375.5-61.3,477.1,92c44.1,65.1,51.7,99.6,51.7,205c0,111.1-7.7,136-55.6,199.2C7865.3-540,7677.5-484.5,7543.4-538.1z"/>
</g>
</svg>